HIERARCHY
ROOT joint_Root
{
	OFFSET 0.0 0.0 0.0
	CHANNELS 6 Xposition Yposition Zposition Zrotation Xrotation Yrotation 
	JOINT Hips
	{
		OFFSET 4.5925 91.4895 -427.239
		CHANNELS 6 Xposition Yposition Zposition Zrotation Xrotation Yrotation 
		JOINT Spine
		{
			OFFSET 15.7357 0.0 0.0
			CHANNELS 6 Xposition Yposition Zposition Zrotation Xrotation Yrotation 
			JOINT Chest
			{
				OFFSET 8.98455 -0.406207 0.0
				CHANNELS 6 Xposition Yposition Zposition Zrotation Xrotation Yrotation 
				JOINT Neck
				{
					OFFSET 16.3773 0.0 0.0
					CHANNELS 6 Xposition Yposition Zposition Zrotation Xrotation Yrotation 
					JOINT Head
					{
						OFFSET 6.45672 0.0 0.0
						CHANNELS 6 Xposition Yposition Zposition Zrotation Xrotation Yrotation 
						End Site
						{
							OFFSET 0.0 0.0 0.0
						}
					}
				}
				JOINT Shoulder_L
				{
					OFFSET 12.9942 -0.242716 4.98039
					CHANNELS 6 Xposition Yposition Zposition Zrotation Xrotation Yrotation 
					JOINT UpperArm_L
					{
						OFFSET 5.34809 0.0 0.0
						CHANNELS 6 Xposition Yposition Zposition Zrotation Xrotation Yrotation 
						JOINT LowerArm_L
						{
							OFFSET 24.3286 1.87007e-05 0.0
							CHANNELS 6 Xposition Yposition Zposition Zrotation Xrotation Yrotation 
							JOINT Hand_L
							{
								OFFSET 22.2916 0.0 0.0
								CHANNELS 6 Xposition Yposition Zposition Zrotation Xrotation Yrotation 
								End Site
								{
									OFFSET 0.0 0.0 0.0
								}
							}
						}
					}
				}
				JOINT Shoulder_R
				{
					OFFSET 12.9945 -0.242716 -4.98039
					CHANNELS 6 Xposition Yposition Zposition Zrotation Xrotation Yrotation 
					JOINT UpperArm_R
					{
						OFFSET -5.34813 0.0 0.0
						CHANNELS 6 Xposition Yposition Zposition Zrotation Xrotation Yrotation 
						JOINT LowerArm_R
						{
							OFFSET -24.3289 0.000322201 0.0
							CHANNELS 6 Xposition Yposition Zposition Zrotation Xrotation Yrotation 
							JOINT Hand_R
							{
								OFFSET -22.2915 -0.000108084 0.0
								CHANNELS 6 Xposition Yposition Zposition Zrotation Xrotation Yrotation 
								End Site
								{
									OFFSET 0.0 0.0 0.0
								}
							}
						}
					}
				}
			}
		}
		JOINT UpperLeg_L
		{
			OFFSET -2.19248 -6.46944 0.0
			CHANNELS 6 Xposition Yposition Zposition Zrotation Xrotation Yrotation 
			JOINT LowerLeg_L
			{
				OFFSET 39.0811 0.0 -1.23785e-05
				CHANNELS 6 Xposition Yposition Zposition Zrotation Xrotation Yrotation 
				JOINT Foot_L
				{
					OFFSET 40.9854 0.0 -1.26872e-05
					CHANNELS 6 Xposition Yposition Zposition Zrotation Xrotation Yrotation 
					JOINT Toes_L
					{
						OFFSET 11.7543 0.0 0.0
						CHANNELS 6 Xposition Yposition Zposition Zrotation Xrotation Yrotation 
						End Site
						{
							OFFSET 0.0 0.0 0.0
						}
					}
				}
			}
		}
		JOINT UpperLeg_R
		{
			OFFSET -2.19251 6.46944 0.0
			CHANNELS 6 Xposition Yposition Zposition Zrotation Xrotation Yrotation 
			JOINT LowerLeg_R
			{
				OFFSET -39.0811 -0.00228153 -0.0401928
				CHANNELS 6 Xposition Yposition Zposition Zrotation Xrotation Yrotation 
				JOINT Foot_R
				{
					OFFSET -40.9854 0.0 0.0
					CHANNELS 6 Xposition Yposition Zposition Zrotation Xrotation Yrotation 
					JOINT Toes_R
					{
						OFFSET -11.7543 0.0 0.0
						CHANNELS 6 Xposition Yposition Zposition Zrotation Xrotation Yrotation 
						End Site
						{
							OFFSET 0.0 0.0 0.0
						}
					}
				}
			}
		}
	}
}
MOTION
Frames:	4
Frame Time:	0.0333333
0.000000 0.000000 0.000000 0.000000 0.000000 -0.000000 -0.822005 81.413500 -0.882311 86.929600 3.629460 15.037100 15.735700 0.000005 -0.000001 94.787500 79.855100 -96.614500 8.984550 -0.406207 -0.000000 12.485000 1.602440 -3.829210 16.377300 -0.000001 -0.000001 -0.870357 -10.561500 2.794770 6.456720 -0.000001 -0.000000 -0.370280 -16.820000 13.050500 12.994200 -0.242716 4.980390 -91.790400 5.014570 -70.322800 5.348090 -0.000007 -0.000001 -69.922300 15.271900 -5.258890 24.328600 0.000019 0.000005 2.777200 5.977530 -24.974700 22.291600 -0.000001 0.000005 17.894900 5.222870 2.135320 12.994500 -0.242716 -4.980390 88.496500 8.354780 -79.760600 -5.348130 -0.000001 -0.000004 -67.172200 31.431700 -2.936800 -24.328900 0.000322 -0.000009 -2.641030 -5.633870 -25.156800 -22.291500 -0.000108 -0.000004 18.926500 5.461770 -5.065700 -2.192480 -6.469440 -0.000000 -170.968000 -9.828320 -13.315900 39.081100 -0.000007 -0.000012 -0.282958 0.131603 65.058100 40.985400 -0.000006 -0.000013 3.813340 8.615590 -87.125200 11.754300 -0.000000 0.000003 -0.000148 -0.001437 -16.632200 -2.192510 6.469440 -0.000001 177.024000 17.392700 169.306000 -39.081100 -0.002282 -0.040193 0.124025 -0.060039 63.581300 -40.985400 0.000008 0.000006 5.504210 1.561480 -86.907500 -11.754300 -0.000006 -0.000006 -0.433887 -0.533404 -17.058400
0.000000 0.000000 0.000000 0.000000 0.000000 -0.000000 -0.050792 83.178000 -0.365244 87.656700 1.065240 14.579200 15.735700 0.000005 -0.000001 94.185200 80.563700 -95.515500 8.984550 -0.406207 -0.000000 11.075300 1.328580 -2.788150 16.377300 -0.000001 -0.000001 -0.536786 -9.814900 3.025270 6.456720 -0.000001 -0.000000 0.072839 -15.217100 11.459000 12.994200 -0.242716 4.980390 -91.502300 4.054820 -69.649800 5.348090 -0.000007 -0.000001 -68.254000 13.167800 -3.496070 24.328600 0.000019 0.000005 3.302530 7.198180 -24.727800 22.291600 -0.000001 0.000005 14.900500 5.241730 1.646950 12.994500 -0.242716 -4.980390 88.517700 7.928690 -79.374900 -5.348130 -0.000001 -0.000004 -66.626000 30.957900 -3.895870 -24.328900 0.000322 -0.000009 -2.177440 -5.038590 -23.397900 -22.291500 -0.000108 -0.000004 18.779000 5.455090 -4.821660 -2.192480 -6.469440 -0.000000 -171.611000 -12.458600 -10.070900 39.081100 -0.000007 -0.000012 -0.235987 0.137133 59.839900 40.985400 -0.000006 -0.000013 3.856040 8.305980 -85.240700 11.754300 -0.000000 0.000003 -0.000099 -0.001017 -16.616600 -2.192510 6.469440 -0.000001 176.100000 15.563300 171.292000 -39.081100 -0.002282 -0.040193 0.093048 -0.054321 58.841700 -40.985400 0.000008 0.000006 5.238430 3.167290 -84.508800 -11.754300 -0.000006 -0.000006 -0.361481 -0.446193 -17.189500
0.000000 0.000000 0.000000 0.000000 0.000000 -0.000000 0.822249 85.459500 0.259714 88.455300 -2.131440 13.587800 15.735700 0.000005 -0.000001 94.190200 81.684200 -94.673900 8.984550 -0.406207 -0.000000 8.827750 1.204590 -1.059500 16.377300 -0.000001 -0.000001 1.125230 -8.801810 2.945460 6.456720 -0.000001 -0.000000 0.321301 -13.027600 7.984690 12.994200 -0.242716 4.980390 -91.055300 2.747600 -68.979000 5.348090 -0.000007 -0.000001 -62.364800 8.419390 -4.529420 24.328600 0.000019 0.000005 4.696800 10.325800 -24.624600 22.291600 -0.000001 0.000005 12.865300 5.241320 1.661620 12.994500 -0.242716 -4.980390 88.587400 7.057980 -78.651200 -5.348130 -0.000001 -0.000004 -66.288800 29.368700 -4.050050 -24.328900 0.000322 -0.000009 -1.921100 -4.517600 -23.055400 -22.291500 -0.000108 -0.000004 18.558700 5.447340 -4.544490 -2.192480 -6.469440 -0.000000 -172.538000 -15.260900 -6.241350 39.081100 -0.000007 -0.000012 -0.202128 0.155598 52.411900 40.985400 -0.000006 -0.000013 3.626210 7.714810 -82.318500 11.754300 -0.000000 0.000003 -0.000077 -0.000827 -16.609400 -2.192510 6.469440 -0.000001 174.813000 14.488000 173.626000 -39.081100 -0.002282 -0.040193 0.058985 -0.043312 52.154700 -40.985400 0.000008 0.000006 5.257410 6.190310 -81.011300 -11.754300 -0.000006 -0.000006 -0.279621 -0.350730 -17.493100
0.000000 0.000000 0.000000 0.000000 0.000000 -0.000000 1.589130 87.601700 0.627166 88.805700 -4.934740 11.296400 15.735700 0.000005 -0.000001 94.022800 83.347400 -93.332600 8.984550 -0.406207 -0.000000 5.501690 0.917585 1.334710 16.377300 -0.000001 -0.000001 3.802630 -7.876750 2.553010 6.456720 -0.000001 -0.000000 0.585872 -10.756900 3.556510 12.994200 -0.242716 4.980390 -90.422900 1.084450 -68.696700 5.348090 -0.000007 -0.000001 -54.008200 -2.849230 -7.513410 24.328600 0.000019 0.000005 3.326820 7.156730 -25.020400 22.291600 -0.000001 0.000005 13.719400 5.217490 2.273600 12.994500 -0.242716 -4.980390 88.676100 5.918790 -77.365800 -5.348130 -0.000001 -0.000004 -65.499300 28.085500 -4.030230 -24.328900 0.000322 -0.000009 -1.934520 -4.394190 -23.778100 -22.291500 -0.000108 -0.000004 17.838400 5.453110 -4.752140 -2.192480 -6.469440 -0.000000 -173.920000 -16.830400 -4.196540 39.081100 -0.000007 -0.000012 -0.168772 0.170619 44.688700 40.985400 -0.000006 -0.000013 3.033270 6.326580 -78.878200 11.754300 -0.000000 0.000003 -0.000054 -0.000604 -16.601000 -2.192510 6.469440 -0.000001 174.046000 14.921700 174.647000 -39.081100 -0.002282 -0.040193 0.030097 -0.026838 44.994000 -40.985400 0.000008 0.000006 4.987660 10.170000 -76.959700 -11.754300 -0.000006 -0.000006 -0.025547 -0.061962 -18.018300
